<mxfile host="app.diagrams.net" modified="2022-09-23T13:29:19.119Z" agent="5.0 (Windows NT 10.0; Win64; x64) AppleWebKit/537.36 (KHTML, like Gecko) Chrome/105.0.0.0 Safari/537.36" etag="_6UCNOe3D3vlTl4MVgEO" version="20.3.6" type="github">
  <diagram id="nAuwUsPzhKM0GsfRYQqk" name="Page-1">
    <mxGraphModel dx="1422" dy="762" grid="1" gridSize="10" guides="1" tooltips="1" connect="1" arrows="1" fold="1" page="1" pageScale="1" pageWidth="827" pageHeight="1169" math="0" shadow="0">
      <root>
        <mxCell id="0" />
        <mxCell id="1" parent="0" />
        <mxCell id="7mzZi2HHNZOIRyizlRB2-1" value="" style="shape=sumEllipse;perimeter=ellipsePerimeter;whiteSpace=wrap;html=1;backgroundOutline=1;fillColor=none;strokeColor=#82b366;" vertex="1" parent="1">
          <mxGeometry x="680" y="80" width="20" height="20" as="geometry" />
        </mxCell>
        <mxCell id="7mzZi2HHNZOIRyizlRB2-2" value="" style="shape=sumEllipse;perimeter=ellipsePerimeter;whiteSpace=wrap;html=1;backgroundOutline=1;fillColor=none;strokeColor=#82b366;" vertex="1" parent="1">
          <mxGeometry x="680" y="200" width="20" height="20" as="geometry" />
        </mxCell>
        <mxCell id="7mzZi2HHNZOIRyizlRB2-3" value="" style="shape=sumEllipse;perimeter=ellipsePerimeter;whiteSpace=wrap;html=1;backgroundOutline=1;fillColor=none;strokeColor=#82b366;" vertex="1" parent="1">
          <mxGeometry x="680" y="140" width="20" height="20" as="geometry" />
        </mxCell>
        <mxCell id="7mzZi2HHNZOIRyizlRB2-4" value="" style="shape=sumEllipse;perimeter=ellipsePerimeter;whiteSpace=wrap;html=1;backgroundOutline=1;fillColor=none;strokeColor=#82b366;" vertex="1" parent="1">
          <mxGeometry x="680" y="260" width="20" height="20" as="geometry" />
        </mxCell>
        <mxCell id="7mzZi2HHNZOIRyizlRB2-12" value="" style="shape=sumEllipse;perimeter=ellipsePerimeter;whiteSpace=wrap;html=1;backgroundOutline=1;fillColor=none;strokeColor=#82b366;" vertex="1" parent="1">
          <mxGeometry x="680" y="500" width="20" height="20" as="geometry" />
        </mxCell>
        <mxCell id="7mzZi2HHNZOIRyizlRB2-13" value="" style="shape=sumEllipse;perimeter=ellipsePerimeter;whiteSpace=wrap;html=1;backgroundOutline=1;fillColor=none;strokeColor=#82b366;" vertex="1" parent="1">
          <mxGeometry x="680" y="440" width="20" height="20" as="geometry" />
        </mxCell>
        <mxCell id="7mzZi2HHNZOIRyizlRB2-14" value="" style="shape=sumEllipse;perimeter=ellipsePerimeter;whiteSpace=wrap;html=1;backgroundOutline=1;fillColor=none;strokeColor=#82b366;" vertex="1" parent="1">
          <mxGeometry x="680" y="380" width="20" height="20" as="geometry" />
        </mxCell>
        <mxCell id="7mzZi2HHNZOIRyizlRB2-15" value="" style="shape=sumEllipse;perimeter=ellipsePerimeter;whiteSpace=wrap;html=1;backgroundOutline=1;fillColor=none;strokeColor=#82b366;" vertex="1" parent="1">
          <mxGeometry x="680" y="320" width="20" height="20" as="geometry" />
        </mxCell>
        <mxCell id="7mzZi2HHNZOIRyizlRB2-20" value="" style="shape=sumEllipse;perimeter=ellipsePerimeter;whiteSpace=wrap;html=1;backgroundOutline=1;fillColor=none;strokeColor=#82b366;" vertex="1" parent="1">
          <mxGeometry x="680" y="860" width="20" height="20" as="geometry" />
        </mxCell>
        <mxCell id="7mzZi2HHNZOIRyizlRB2-21" value="" style="shape=sumEllipse;perimeter=ellipsePerimeter;whiteSpace=wrap;html=1;backgroundOutline=1;fillColor=none;strokeColor=#82b366;" vertex="1" parent="1">
          <mxGeometry x="680" y="740" width="20" height="20" as="geometry" />
        </mxCell>
        <mxCell id="7mzZi2HHNZOIRyizlRB2-22" value="" style="shape=sumEllipse;perimeter=ellipsePerimeter;whiteSpace=wrap;html=1;backgroundOutline=1;fillColor=none;strokeColor=#82b366;" vertex="1" parent="1">
          <mxGeometry x="680" y="680" width="20" height="20" as="geometry" />
        </mxCell>
        <mxCell id="7mzZi2HHNZOIRyizlRB2-23" value="" style="shape=sumEllipse;perimeter=ellipsePerimeter;whiteSpace=wrap;html=1;backgroundOutline=1;fillColor=none;strokeColor=#82b366;" vertex="1" parent="1">
          <mxGeometry x="680" y="620" width="20" height="20" as="geometry" />
        </mxCell>
        <mxCell id="7mzZi2HHNZOIRyizlRB2-25" value="" style="shape=sumEllipse;perimeter=ellipsePerimeter;whiteSpace=wrap;html=1;backgroundOutline=1;fillColor=none;strokeColor=#82b366;" vertex="1" parent="1">
          <mxGeometry x="680" y="800" width="20" height="20" as="geometry" />
        </mxCell>
        <mxCell id="7mzZi2HHNZOIRyizlRB2-26" value="" style="shape=sumEllipse;perimeter=ellipsePerimeter;whiteSpace=wrap;html=1;backgroundOutline=1;fillColor=none;strokeColor=#82b366;" vertex="1" parent="1">
          <mxGeometry x="680" y="920" width="20" height="20" as="geometry" />
        </mxCell>
        <mxCell id="7mzZi2HHNZOIRyizlRB2-27" value="" style="shape=sumEllipse;perimeter=ellipsePerimeter;whiteSpace=wrap;html=1;backgroundOutline=1;fillColor=none;strokeColor=#82b366;" vertex="1" parent="1">
          <mxGeometry x="680" y="980" width="20" height="20" as="geometry" />
        </mxCell>
        <mxCell id="7mzZi2HHNZOIRyizlRB2-32" value="" style="shape=sumEllipse;perimeter=ellipsePerimeter;whiteSpace=wrap;html=1;backgroundOutline=1;fillColor=none;strokeColor=#82b366;" vertex="1" parent="1">
          <mxGeometry x="680" y="560" width="20" height="20" as="geometry" />
        </mxCell>
        <mxCell id="7mzZi2HHNZOIRyizlRB2-38" value="" style="shape=sumEllipse;perimeter=ellipsePerimeter;whiteSpace=wrap;html=1;backgroundOutline=1;fillColor=none;strokeColor=#82b366;" vertex="1" parent="1">
          <mxGeometry x="360" y="200" width="20" height="20" as="geometry" />
        </mxCell>
        <mxCell id="7mzZi2HHNZOIRyizlRB2-39" value="" style="shape=sumEllipse;perimeter=ellipsePerimeter;whiteSpace=wrap;html=1;backgroundOutline=1;fillColor=none;strokeColor=#82b366;" vertex="1" parent="1">
          <mxGeometry x="360" y="140" width="20" height="20" as="geometry" />
        </mxCell>
        <mxCell id="7mzZi2HHNZOIRyizlRB2-40" value="" style="shape=sumEllipse;perimeter=ellipsePerimeter;whiteSpace=wrap;html=1;backgroundOutline=1;fillColor=none;strokeColor=#82b366;" vertex="1" parent="1">
          <mxGeometry x="360" y="260" width="20" height="20" as="geometry" />
        </mxCell>
        <mxCell id="7mzZi2HHNZOIRyizlRB2-41" value="" style="shape=sumEllipse;perimeter=ellipsePerimeter;whiteSpace=wrap;html=1;backgroundOutline=1;fillColor=none;strokeColor=#82b366;" vertex="1" parent="1">
          <mxGeometry x="360" y="500" width="20" height="20" as="geometry" />
        </mxCell>
        <mxCell id="7mzZi2HHNZOIRyizlRB2-42" value="" style="shape=sumEllipse;perimeter=ellipsePerimeter;whiteSpace=wrap;html=1;backgroundOutline=1;fillColor=none;strokeColor=#82b366;" vertex="1" parent="1">
          <mxGeometry x="360" y="440" width="20" height="20" as="geometry" />
        </mxCell>
        <mxCell id="7mzZi2HHNZOIRyizlRB2-43" value="" style="shape=sumEllipse;perimeter=ellipsePerimeter;whiteSpace=wrap;html=1;backgroundOutline=1;fillColor=none;strokeColor=#82b366;" vertex="1" parent="1">
          <mxGeometry x="360" y="380" width="20" height="20" as="geometry" />
        </mxCell>
        <mxCell id="7mzZi2HHNZOIRyizlRB2-44" value="" style="shape=sumEllipse;perimeter=ellipsePerimeter;whiteSpace=wrap;html=1;backgroundOutline=1;fillColor=none;strokeColor=#82b366;" vertex="1" parent="1">
          <mxGeometry x="360" y="320" width="20" height="20" as="geometry" />
        </mxCell>
        <mxCell id="7mzZi2HHNZOIRyizlRB2-45" value="" style="shape=sumEllipse;perimeter=ellipsePerimeter;whiteSpace=wrap;html=1;backgroundOutline=1;fillColor=none;strokeColor=#82b366;" vertex="1" parent="1">
          <mxGeometry x="360" y="860" width="20" height="20" as="geometry" />
        </mxCell>
        <mxCell id="7mzZi2HHNZOIRyizlRB2-46" value="" style="shape=sumEllipse;perimeter=ellipsePerimeter;whiteSpace=wrap;html=1;backgroundOutline=1;fillColor=none;strokeColor=#82b366;" vertex="1" parent="1">
          <mxGeometry x="360" y="740" width="20" height="20" as="geometry" />
        </mxCell>
        <mxCell id="7mzZi2HHNZOIRyizlRB2-47" value="" style="shape=sumEllipse;perimeter=ellipsePerimeter;whiteSpace=wrap;html=1;backgroundOutline=1;fillColor=none;strokeColor=#82b366;" vertex="1" parent="1">
          <mxGeometry x="360" y="680" width="20" height="20" as="geometry" />
        </mxCell>
        <mxCell id="7mzZi2HHNZOIRyizlRB2-48" value="" style="shape=sumEllipse;perimeter=ellipsePerimeter;whiteSpace=wrap;html=1;backgroundOutline=1;fillColor=none;strokeColor=#82b366;" vertex="1" parent="1">
          <mxGeometry x="360" y="620" width="20" height="20" as="geometry" />
        </mxCell>
        <mxCell id="7mzZi2HHNZOIRyizlRB2-49" value="" style="shape=sumEllipse;perimeter=ellipsePerimeter;whiteSpace=wrap;html=1;backgroundOutline=1;fillColor=none;strokeColor=#82b366;" vertex="1" parent="1">
          <mxGeometry x="360" y="800" width="20" height="20" as="geometry" />
        </mxCell>
        <mxCell id="7mzZi2HHNZOIRyizlRB2-50" value="" style="shape=sumEllipse;perimeter=ellipsePerimeter;whiteSpace=wrap;html=1;backgroundOutline=1;fillColor=none;strokeColor=#82b366;" vertex="1" parent="1">
          <mxGeometry x="360" y="920" width="20" height="20" as="geometry" />
        </mxCell>
        <mxCell id="7mzZi2HHNZOIRyizlRB2-51" value="" style="shape=sumEllipse;perimeter=ellipsePerimeter;whiteSpace=wrap;html=1;backgroundOutline=1;fillColor=none;strokeColor=#82b366;" vertex="1" parent="1">
          <mxGeometry x="360" y="980" width="20" height="20" as="geometry" />
        </mxCell>
        <mxCell id="7mzZi2HHNZOIRyizlRB2-52" value="" style="shape=sumEllipse;perimeter=ellipsePerimeter;whiteSpace=wrap;html=1;backgroundOutline=1;fillColor=none;strokeColor=#82b366;" vertex="1" parent="1">
          <mxGeometry x="360" y="560" width="20" height="20" as="geometry" />
        </mxCell>
        <mxCell id="7mzZi2HHNZOIRyizlRB2-57" value="" style="shape=sumEllipse;perimeter=ellipsePerimeter;whiteSpace=wrap;html=1;backgroundOutline=1;fillColor=none;strokeColor=#6c8ebf;" vertex="1" parent="1">
          <mxGeometry x="560" y="500" width="20" height="20" as="geometry" />
        </mxCell>
        <mxCell id="7mzZi2HHNZOIRyizlRB2-58" value="" style="shape=sumEllipse;perimeter=ellipsePerimeter;whiteSpace=wrap;html=1;backgroundOutline=1;fillColor=none;strokeColor=#6c8ebf;" vertex="1" parent="1">
          <mxGeometry x="560" y="440" width="20" height="20" as="geometry" />
        </mxCell>
        <mxCell id="7mzZi2HHNZOIRyizlRB2-59" value="" style="shape=sumEllipse;perimeter=ellipsePerimeter;whiteSpace=wrap;html=1;backgroundOutline=1;fillColor=none;strokeColor=#6c8ebf;" vertex="1" parent="1">
          <mxGeometry x="560" y="380" width="20" height="20" as="geometry" />
        </mxCell>
        <mxCell id="7mzZi2HHNZOIRyizlRB2-60" value="" style="shape=sumEllipse;perimeter=ellipsePerimeter;whiteSpace=wrap;html=1;backgroundOutline=1;fillColor=none;strokeColor=#6c8ebf;" vertex="1" parent="1">
          <mxGeometry x="560" y="320" width="20" height="20" as="geometry" />
        </mxCell>
        <mxCell id="7mzZi2HHNZOIRyizlRB2-61" value="" style="shape=sumEllipse;perimeter=ellipsePerimeter;whiteSpace=wrap;html=1;backgroundOutline=1;fillColor=none;strokeColor=#6c8ebf;" vertex="1" parent="1">
          <mxGeometry x="560" y="860" width="20" height="20" as="geometry" />
        </mxCell>
        <mxCell id="7mzZi2HHNZOIRyizlRB2-62" value="" style="shape=sumEllipse;perimeter=ellipsePerimeter;whiteSpace=wrap;html=1;backgroundOutline=1;fillColor=none;strokeColor=#6c8ebf;" vertex="1" parent="1">
          <mxGeometry x="560" y="740" width="20" height="20" as="geometry" />
        </mxCell>
        <mxCell id="7mzZi2HHNZOIRyizlRB2-63" value="" style="shape=sumEllipse;perimeter=ellipsePerimeter;whiteSpace=wrap;html=1;backgroundOutline=1;fillColor=none;strokeColor=#6c8ebf;" vertex="1" parent="1">
          <mxGeometry x="560" y="680" width="20" height="20" as="geometry" />
        </mxCell>
        <mxCell id="7mzZi2HHNZOIRyizlRB2-64" value="" style="shape=sumEllipse;perimeter=ellipsePerimeter;whiteSpace=wrap;html=1;backgroundOutline=1;fillColor=none;strokeColor=#6c8ebf;" vertex="1" parent="1">
          <mxGeometry x="560" y="620" width="20" height="20" as="geometry" />
        </mxCell>
        <mxCell id="7mzZi2HHNZOIRyizlRB2-65" value="" style="shape=sumEllipse;perimeter=ellipsePerimeter;whiteSpace=wrap;html=1;backgroundOutline=1;fillColor=none;strokeColor=#6c8ebf;" vertex="1" parent="1">
          <mxGeometry x="560" y="800" width="20" height="20" as="geometry" />
        </mxCell>
        <mxCell id="7mzZi2HHNZOIRyizlRB2-66" value="" style="shape=sumEllipse;perimeter=ellipsePerimeter;whiteSpace=wrap;html=1;backgroundOutline=1;fillColor=none;strokeColor=#6c8ebf;" vertex="1" parent="1">
          <mxGeometry x="560" y="920" width="20" height="20" as="geometry" />
        </mxCell>
        <mxCell id="7mzZi2HHNZOIRyizlRB2-67" value="" style="shape=sumEllipse;perimeter=ellipsePerimeter;whiteSpace=wrap;html=1;backgroundOutline=1;fillColor=none;strokeColor=#6c8ebf;" vertex="1" parent="1">
          <mxGeometry x="560" y="980" width="20" height="20" as="geometry" />
        </mxCell>
        <mxCell id="7mzZi2HHNZOIRyizlRB2-68" value="" style="shape=sumEllipse;perimeter=ellipsePerimeter;whiteSpace=wrap;html=1;backgroundOutline=1;fillColor=none;strokeColor=#6c8ebf;" vertex="1" parent="1">
          <mxGeometry x="560" y="560" width="20" height="20" as="geometry" />
        </mxCell>
        <mxCell id="7mzZi2HHNZOIRyizlRB2-70" value="" style="shape=sumEllipse;perimeter=ellipsePerimeter;whiteSpace=wrap;html=1;backgroundOutline=1;fillColor=none;strokeColor=#6c8ebf;" vertex="1" parent="1">
          <mxGeometry x="240" y="200" width="20" height="20" as="geometry" />
        </mxCell>
        <mxCell id="7mzZi2HHNZOIRyizlRB2-72" value="" style="shape=sumEllipse;perimeter=ellipsePerimeter;whiteSpace=wrap;html=1;backgroundOutline=1;fillColor=none;strokeColor=#6c8ebf;" vertex="1" parent="1">
          <mxGeometry x="240" y="260" width="20" height="20" as="geometry" />
        </mxCell>
        <mxCell id="7mzZi2HHNZOIRyizlRB2-73" value="" style="shape=sumEllipse;perimeter=ellipsePerimeter;whiteSpace=wrap;html=1;backgroundOutline=1;fillColor=none;strokeColor=#6c8ebf;" vertex="1" parent="1">
          <mxGeometry x="240" y="500" width="20" height="20" as="geometry" />
        </mxCell>
        <mxCell id="7mzZi2HHNZOIRyizlRB2-74" value="" style="shape=sumEllipse;perimeter=ellipsePerimeter;whiteSpace=wrap;html=1;backgroundOutline=1;fillColor=none;strokeColor=#6c8ebf;" vertex="1" parent="1">
          <mxGeometry x="240" y="440" width="20" height="20" as="geometry" />
        </mxCell>
        <mxCell id="7mzZi2HHNZOIRyizlRB2-75" value="" style="shape=sumEllipse;perimeter=ellipsePerimeter;whiteSpace=wrap;html=1;backgroundOutline=1;fillColor=none;strokeColor=#6c8ebf;" vertex="1" parent="1">
          <mxGeometry x="240" y="380" width="20" height="20" as="geometry" />
        </mxCell>
        <mxCell id="7mzZi2HHNZOIRyizlRB2-76" value="" style="shape=sumEllipse;perimeter=ellipsePerimeter;whiteSpace=wrap;html=1;backgroundOutline=1;fillColor=none;strokeColor=#6c8ebf;" vertex="1" parent="1">
          <mxGeometry x="240" y="320" width="20" height="20" as="geometry" />
        </mxCell>
        <mxCell id="7mzZi2HHNZOIRyizlRB2-77" value="" style="shape=sumEllipse;perimeter=ellipsePerimeter;whiteSpace=wrap;html=1;backgroundOutline=1;fillColor=none;strokeColor=#6c8ebf;" vertex="1" parent="1">
          <mxGeometry x="240" y="860" width="20" height="20" as="geometry" />
        </mxCell>
        <mxCell id="7mzZi2HHNZOIRyizlRB2-78" value="" style="shape=sumEllipse;perimeter=ellipsePerimeter;whiteSpace=wrap;html=1;backgroundOutline=1;fillColor=none;strokeColor=#6c8ebf;" vertex="1" parent="1">
          <mxGeometry x="240" y="740" width="20" height="20" as="geometry" />
        </mxCell>
        <mxCell id="7mzZi2HHNZOIRyizlRB2-79" value="" style="shape=sumEllipse;perimeter=ellipsePerimeter;whiteSpace=wrap;html=1;backgroundOutline=1;fillColor=none;strokeColor=#6c8ebf;" vertex="1" parent="1">
          <mxGeometry x="240" y="680" width="20" height="20" as="geometry" />
        </mxCell>
        <mxCell id="7mzZi2HHNZOIRyizlRB2-80" value="" style="shape=sumEllipse;perimeter=ellipsePerimeter;whiteSpace=wrap;html=1;backgroundOutline=1;fillColor=none;strokeColor=#6c8ebf;" vertex="1" parent="1">
          <mxGeometry x="240" y="620" width="20" height="20" as="geometry" />
        </mxCell>
        <mxCell id="7mzZi2HHNZOIRyizlRB2-81" value="" style="shape=sumEllipse;perimeter=ellipsePerimeter;whiteSpace=wrap;html=1;backgroundOutline=1;fillColor=none;strokeColor=#6c8ebf;" vertex="1" parent="1">
          <mxGeometry x="240" y="800" width="20" height="20" as="geometry" />
        </mxCell>
        <mxCell id="7mzZi2HHNZOIRyizlRB2-82" value="" style="shape=sumEllipse;perimeter=ellipsePerimeter;whiteSpace=wrap;html=1;backgroundOutline=1;fillColor=none;strokeColor=#6c8ebf;" vertex="1" parent="1">
          <mxGeometry x="240" y="920" width="20" height="20" as="geometry" />
        </mxCell>
        <mxCell id="7mzZi2HHNZOIRyizlRB2-83" value="" style="shape=sumEllipse;perimeter=ellipsePerimeter;whiteSpace=wrap;html=1;backgroundOutline=1;fillColor=none;strokeColor=#6c8ebf;" vertex="1" parent="1">
          <mxGeometry x="240" y="980" width="20" height="20" as="geometry" />
        </mxCell>
        <mxCell id="7mzZi2HHNZOIRyizlRB2-84" value="" style="shape=sumEllipse;perimeter=ellipsePerimeter;whiteSpace=wrap;html=1;backgroundOutline=1;fillColor=none;strokeColor=#6c8ebf;" vertex="1" parent="1">
          <mxGeometry x="240" y="560" width="20" height="20" as="geometry" />
        </mxCell>
        <mxCell id="7mzZi2HHNZOIRyizlRB2-85" value="" style="swimlane;startSize=0;fillColor=none;" vertex="1" parent="1">
          <mxGeometry x="140" y="60" width="310" height="960" as="geometry" />
        </mxCell>
        <mxCell id="7mzZi2HHNZOIRyizlRB2-89" value="&lt;font style=&quot;font-size: 8px;&quot;&gt;V0&lt;/font&gt;" style="text;html=1;strokeColor=none;fillColor=none;align=center;verticalAlign=middle;whiteSpace=wrap;rounded=0;" vertex="1" parent="7mzZi2HHNZOIRyizlRB2-85">
          <mxGeometry x="200" y="85" width="10" height="10" as="geometry" />
        </mxCell>
        <mxCell id="7mzZi2HHNZOIRyizlRB2-103" value="&lt;font style=&quot;font-size: 8px;&quot;&gt;V0&lt;/font&gt;" style="text;html=1;strokeColor=none;fillColor=none;align=center;verticalAlign=middle;rounded=0;spacing=1;" vertex="1" parent="7mzZi2HHNZOIRyizlRB2-85">
          <mxGeometry x="80" y="145" width="10" height="10" as="geometry" />
        </mxCell>
        <mxCell id="7mzZi2HHNZOIRyizlRB2-114" value="" style="shape=umlActor;verticalLabelPosition=bottom;verticalAlign=top;html=1;outlineConnect=0;fontSize=12;fillColor=none;" vertex="1" parent="7mzZi2HHNZOIRyizlRB2-85">
          <mxGeometry x="264" y="80" width="10" height="20" as="geometry" />
        </mxCell>
        <mxCell id="7mzZi2HHNZOIRyizlRB2-117" value="&lt;font style=&quot;font-size: 8px;&quot;&gt;V0&lt;/font&gt;" style="text;html=1;strokeColor=none;fillColor=none;align=center;verticalAlign=middle;whiteSpace=wrap;rounded=0;" vertex="1" parent="7mzZi2HHNZOIRyizlRB2-85">
          <mxGeometry x="200" y="145" width="10" height="10" as="geometry" />
        </mxCell>
        <mxCell id="7mzZi2HHNZOIRyizlRB2-118" value="" style="shape=umlActor;verticalLabelPosition=bottom;verticalAlign=top;html=1;outlineConnect=0;fontSize=12;fillColor=none;" vertex="1" parent="7mzZi2HHNZOIRyizlRB2-85">
          <mxGeometry x="264" y="140" width="10" height="20" as="geometry" />
        </mxCell>
        <mxCell id="7mzZi2HHNZOIRyizlRB2-120" value="&lt;font style=&quot;font-size: 8px;&quot;&gt;V0&lt;/font&gt;" style="text;html=1;strokeColor=none;fillColor=none;align=center;verticalAlign=middle;rounded=0;spacing=1;" vertex="1" parent="7mzZi2HHNZOIRyizlRB2-85">
          <mxGeometry x="80" y="205" width="10" height="10" as="geometry" />
        </mxCell>
        <mxCell id="7mzZi2HHNZOIRyizlRB2-122" value="" style="shape=umlActor;verticalLabelPosition=bottom;verticalAlign=top;html=1;outlineConnect=0;fontSize=12;fillColor=none;" vertex="1" parent="7mzZi2HHNZOIRyizlRB2-85">
          <mxGeometry x="140" y="200" width="10" height="20" as="geometry" />
        </mxCell>
        <mxCell id="7mzZi2HHNZOIRyizlRB2-123" value="" style="shape=umlActor;verticalLabelPosition=bottom;verticalAlign=top;html=1;outlineConnect=0;fontSize=12;fillColor=none;" vertex="1" parent="7mzZi2HHNZOIRyizlRB2-85">
          <mxGeometry x="140" y="260" width="10" height="20" as="geometry" />
        </mxCell>
        <mxCell id="7mzZi2HHNZOIRyizlRB2-86" value="" style="swimlane;startSize=0;fillColor=none;" vertex="1" parent="1">
          <mxGeometry x="450" y="60" width="310" height="960" as="geometry" />
        </mxCell>
        <mxCell id="7mzZi2HHNZOIRyizlRB2-90" value="&lt;font style=&quot;font-size: 8px;&quot;&gt;V0&lt;/font&gt;" style="text;html=1;strokeColor=none;fillColor=none;align=center;verticalAlign=middle;whiteSpace=wrap;rounded=0;" vertex="1" parent="7mzZi2HHNZOIRyizlRB2-86">
          <mxGeometry x="210" y="25" width="10" height="10" as="geometry" />
        </mxCell>
        <mxCell id="7mzZi2HHNZOIRyizlRB2-113" value="" style="shape=umlActor;verticalLabelPosition=bottom;verticalAlign=top;html=1;outlineConnect=0;fontSize=12;fillColor=none;" vertex="1" parent="7mzZi2HHNZOIRyizlRB2-86">
          <mxGeometry x="270" y="20" width="10" height="20" as="geometry" />
        </mxCell>
        <mxCell id="7mzZi2HHNZOIRyizlRB2-87" value="Datalab" style="text;html=1;strokeColor=none;fillColor=none;align=center;verticalAlign=middle;whiteSpace=wrap;rounded=0;" vertex="1" parent="1">
          <mxGeometry x="220" y="10" width="180" height="30" as="geometry" />
        </mxCell>
        <mxCell id="7mzZi2HHNZOIRyizlRB2-88" value="Gitlab" style="text;html=1;strokeColor=none;fillColor=none;align=center;verticalAlign=middle;whiteSpace=wrap;rounded=0;" vertex="1" parent="1">
          <mxGeometry x="550" y="10" width="120" height="30" as="geometry" />
        </mxCell>
        <mxCell id="7mzZi2HHNZOIRyizlRB2-110" value="&lt;font style=&quot;font-size: 12px;&quot;&gt;git clone&lt;/font&gt;" style="endArrow=classic;html=1;rounded=0;fontSize=8;fillColor=#dae8fc;strokeColor=#577EFF;" edge="1" parent="1">
          <mxGeometry relative="1" as="geometry">
            <mxPoint x="680" y="100" as="sourcePoint" />
            <mxPoint x="380" y="140" as="targetPoint" />
            <Array as="points">
              <mxPoint x="530" y="120" />
            </Array>
          </mxGeometry>
        </mxCell>
        <mxCell id="7mzZi2HHNZOIRyizlRB2-116" value="&lt;font style=&quot;font-size: 12px;&quot;&gt;git branch Branchtest&lt;/font&gt;" style="endArrow=classic;html=1;rounded=0;fontSize=8;exitX=0.5;exitY=1;exitDx=0;exitDy=0;entryX=0.5;entryY=0;entryDx=0;entryDy=0;fillColor=#dae8fc;strokeColor=#577EFF;" edge="1" parent="1" source="7mzZi2HHNZOIRyizlRB2-39" target="7mzZi2HHNZOIRyizlRB2-38">
          <mxGeometry relative="1" as="geometry">
            <mxPoint x="690" y="100" as="sourcePoint" />
            <mxPoint x="390" y="160" as="targetPoint" />
            <Array as="points" />
          </mxGeometry>
        </mxCell>
        <mxCell id="7mzZi2HHNZOIRyizlRB2-119" value="&lt;font style=&quot;font-size: 12px;&quot;&gt;git checkout Branchtest&lt;/font&gt;" style="endArrow=classic;html=1;rounded=0;fontSize=8;exitX=0;exitY=1;exitDx=0;exitDy=0;entryX=1;entryY=0;entryDx=0;entryDy=0;fillColor=#dae8fc;strokeColor=#577EFF;" edge="1" parent="1" source="7mzZi2HHNZOIRyizlRB2-38" target="7mzZi2HHNZOIRyizlRB2-72">
          <mxGeometry relative="1" as="geometry">
            <mxPoint x="690" y="100" as="sourcePoint" />
            <mxPoint x="390" y="160" as="targetPoint" />
            <Array as="points" />
          </mxGeometry>
        </mxCell>
        <mxCell id="7mzZi2HHNZOIRyizlRB2-121" value="" style="endArrow=classic;html=1;rounded=0;fontSize=8;fillColor=#dae8fc;strokeColor=#577EFF;exitX=0.5;exitY=1;exitDx=0;exitDy=0;entryX=0.5;entryY=0;entryDx=0;entryDy=0;" edge="1" parent="1" source="7mzZi2HHNZOIRyizlRB2-72" target="7mzZi2HHNZOIRyizlRB2-76">
          <mxGeometry relative="1" as="geometry">
            <mxPoint x="690" y="110" as="sourcePoint" />
            <mxPoint x="390" y="150" as="targetPoint" />
            <Array as="points" />
          </mxGeometry>
        </mxCell>
      </root>
    </mxGraphModel>
  </diagram>
</mxfile>
